<svg width="53" height="84" viewBox="0 0 53 84" fill="none" xmlns="http://www.w3.org/2000/svg">
<path d="M5.74038 9.66667L1 20H7.86538L19.9615 16.6667L5.74038 9.66667Z" fill="white"/>
<path d="M15.5481 20.6667L19.9615 16.6667L7.86538 20H1L2.47115 25L7.86538 27.8333L13.4231 25.6667L15.5481 20.6667Z" fill="#E7E7E7"/>
<path d="M17.1827 1.83333L5.74038 9.66667L19.9615 16.6667L28.1346 15L22.6587 8.41667L17.1827 1.83333Z" fill="white"/>
<path d="M33.8558 1L17.1827 1.83333L22.6587 8.41667L35.1635 9.5L33.8558 1Z" fill="#D2B4F8"/>
<path d="M28.1346 15L36.4712 18L35.1635 9.5L22.6587 8.41667L28.1346 15Z" fill="white"/>
<path d="M52 17.3333L45.9519 7L35.1635 9.5L36.4712 18L38.2692 22.1667L52 17.3333Z" fill="#D2B4F8"/>
<path d="M45.9519 7L33.8558 1L35.1635 9.5L45.9519 7Z" fill="white"/>
<path d="M51.3462 30.5L52 17.3333L38.2692 22.1667L51.3462 30.5Z" fill="white"/>
<path d="M43.1731 40.5L51.3462 30.5L38.2692 22.1667L36.4712 27.1667L39.0681 32.3333L43.1731 40.5Z" fill="white"/>
<path d="M34.6731 45.8333L43.1731 40.5L39.0681 32.3333L30.9952 39.75L34.6731 45.8333Z" fill="white"/>
<path d="M27.3173 33.1667L19.9615 39.1667L24.7019 47.9167L34.6731 45.8333L30.9952 39.75L39.0681 32.3333L36.4712 27.1667L27.3173 33.1667Z" fill="#FCEB53"/>
<path d="M19.9615 45.8333V52.1667L24.7019 47.9167L19.9615 39.1667V45.8333Z" fill="white"/>
<path d="M24.375 56.6667H29.4423L24.7019 47.9167L19.9615 52.1667L24.375 56.6667Z" fill="white"/>
<path d="M33.8558 52.1667L34.6731 45.8333L24.7019 47.9167L29.4423 56.6667L33.8558 52.1667Z" fill="white"/>
<path d="M18.6538 67.5L16.8558 73.8333L25.8462 68.4189L24.375 63.5586L18.6538 67.5Z" fill="white"/>
<path d="M28.7885 78.1396L27.3173 73.2793L25.8462 68.4189L16.8558 73.8333L28.7885 78.1396Z" fill="#FCEB53"/>
<path d="M21.2692 81.6667L30.2596 83L28.7885 78.1396L16.8558 73.8333L21.2692 81.6667Z" fill="white"/>
<path d="M35.3269 78.6667L37.125 71.1667L27.3173 73.2793L28.7885 78.1396L30.2596 83L35.3269 78.6667Z" fill="#D2B4F8"/>
<path d="M32.5481 64.8333L24.7019 63.3333L24.375 63.5586L25.8462 68.4189L27.3173 73.2793L37.125 71.1667L32.5481 64.8333Z" fill="#E7E7E7"/>
<path d="M1 20L5.74038 9.66667M1 20L2.47115 25L7.86538 27.8333M1 20H7.86538M5.74038 9.66667L17.1827 1.83333M5.74038 9.66667L19.9615 16.6667M17.1827 1.83333L33.8558 1M17.1827 1.83333L22.6587 8.41667M33.8558 1L45.9519 7M33.8558 1L35.1635 9.5M45.9519 7L52 17.3333M45.9519 7L35.1635 9.5M52 17.3333L51.3462 30.5M52 17.3333L38.2692 22.1667M51.3462 30.5L43.1731 40.5M51.3462 30.5L38.2692 22.1667M43.1731 40.5L34.6731 45.8333M43.1731 40.5L39.0681 32.3333M34.6731 45.8333L33.8558 52.1667L29.4423 56.6667M34.6731 45.8333L24.7019 47.9167M34.6731 45.8333L30.9952 39.75M29.4423 56.6667H24.375L19.9615 52.1667M29.4423 56.6667L24.7019 47.9167M19.9615 52.1667V45.8333V39.1667M19.9615 52.1667L24.7019 47.9167M19.9615 39.1667L27.3173 33.1667M19.9615 39.1667L24.7019 47.9167M27.3173 33.1667L36.4712 27.1667M27.3173 33.1667L30.9952 39.75M36.4712 27.1667L38.2692 22.1667M36.4712 27.1667L39.0681 32.3333M38.2692 22.1667L36.4712 18M36.4712 18L28.1346 15M36.4712 18L35.1635 9.5M28.1346 15L19.9615 16.6667M28.1346 15L22.6587 8.41667M19.9615 16.6667L15.5481 20.6667L13.4231 25.6667L7.86538 27.8333M19.9615 16.6667L7.86538 20M7.86538 27.8333V20M22.6587 8.41667L35.1635 9.5M30.9952 39.75L39.0681 32.3333M37.125 71.1667L32.5481 64.8333L24.7019 63.3333L24.375 63.5586M37.125 71.1667L35.3269 78.6667L30.2596 83M37.125 71.1667L27.3173 73.2793M30.2596 83L21.2692 81.6667L16.8558 73.8333M30.2596 83L28.7885 78.1396M16.8558 73.8333L18.6538 67.5L24.375 63.5586M16.8558 73.8333L28.7885 78.1396M16.8558 73.8333L25.8462 68.4189M24.375 63.5586L25.8462 68.4189M27.3173 73.2793L28.7885 78.1396M27.3173 73.2793L25.8462 68.4189" stroke="#999595"/>
</svg>
